<svg xmlns="http://www.w3.org/2000/svg" xmlns:xlink="http://www.w3.org/1999/xlink" width="40" zoomAndPan="magnify" viewBox="0 0 30 30.000001" height="40" preserveAspectRatio="xMidYMid meet" version="1.0"><defs><clipPath id="03ac12180d"><path d="M 3.730469 3.589844 L 26.230469 3.589844 L 26.230469 26.089844 L 3.730469 26.089844 Z M 3.730469 3.589844 " clip-rule="nonzero"/></clipPath><clipPath id="ee2004b75f"><path d="M 4 4 L 25.503906 4 L 25.503906 26 L 4 26 Z M 4 4 " clip-rule="nonzero"/></clipPath></defs><g clip-path="url(#03ac12180d)"><path fill="#ffffff" d="M 17.007812 24.796875 C 17.605469 24.265625 18.15625 23.667969 18.644531 23.011719 C 19.25 22.949219 19.855469 22.871094 20.4375 22.769531 C 20.886719 22.691406 21.300781 22.601562 21.679688 22.5 C 20.371094 23.632812 18.773438 24.441406 17.007812 24.796875 Z M 8.476562 22.636719 C 8.9375 22.78125 9.4375 22.898438 9.972656 22.988281 C 10.460938 23.074219 10.964844 23.128906 11.472656 23.171875 C 11.929688 23.765625 12.4375 24.308594 12.988281 24.796875 C 11.296875 24.457031 9.753906 23.699219 8.476562 22.636719 Z M 6.289062 9.546875 C 6.425781 9.671875 6.59375 9.789062 6.789062 9.898438 C 7.273438 10.171875 7.953125 10.414062 8.800781 10.621094 C 8.972656 10.660156 9.144531 10.699219 9.324219 10.734375 C 8.917969 12.058594 8.710938 13.453125 8.710938 14.867188 C 8.710938 15.441406 8.746094 16.007812 8.8125 16.570312 C 8.367188 16.484375 7.941406 16.390625 7.542969 16.289062 C 5.375 15.722656 4.804688 15.085938 4.804688 14.828125 C 4.804688 12.894531 5.347656 11.085938 6.289062 9.546875 Z M 13.105469 4.835938 C 12.023438 5.773438 11.09375 6.933594 10.371094 8.253906 C 10.113281 8.722656 9.882812 9.210938 9.683594 9.714844 C 9.515625 9.679688 9.351562 9.644531 9.195312 9.609375 C 8.453125 9.441406 7.84375 9.238281 7.425781 9.023438 C 7.085938 8.847656 6.953125 8.707031 6.914062 8.640625 C 8.410156 6.699219 10.597656 5.308594 13.105469 4.835938 Z M 23.085938 8.644531 C 23.003906 8.71875 22.839844 8.84375 22.511719 8.992188 C 22.066406 9.203125 21.449219 9.402344 20.734375 9.574219 C 20.589844 9.609375 20.441406 9.640625 20.292969 9.671875 C 20.097656 9.183594 19.875 8.710938 19.625 8.25 C 18.902344 6.929688 17.972656 5.773438 16.886719 4.835938 C 19.394531 5.308594 21.585938 6.699219 23.085938 8.644531 Z M 22.449219 16.289062 C 22.050781 16.390625 21.628906 16.484375 21.183594 16.570312 C 21.25 16.007812 21.285156 15.441406 21.285156 14.867188 C 21.285156 13.4375 21.070312 12.027344 20.65625 10.691406 C 20.875 10.644531 21.085938 10.59375 21.292969 10.539062 C 22.117188 10.324219 22.78125 10.082031 23.265625 9.816406 C 23.433594 9.722656 23.574219 9.628906 23.695312 9.535156 C 24.644531 11.078125 25.191406 12.890625 25.191406 14.828125 C 25.191406 15.085938 24.617188 15.722656 22.449219 16.289062 Z M 15.535156 22.136719 L 15.535156 18.160156 C 17.058594 18.140625 18.527344 18.039062 19.867188 17.863281 C 19.515625 19.371094 18.898438 20.769531 18.0625 21.988281 C 17.160156 22.070312 16.28125 22.109375 15.535156 22.136719 Z M 15.535156 24.613281 L 15.535156 23.210938 C 16.027344 23.191406 16.582031 23.167969 17.164062 23.132812 C 16.671875 23.683594 16.125 24.179688 15.535156 24.613281 Z M 13.617188 23.246094 C 13.902344 23.246094 14.183594 23.242188 14.460938 23.238281 L 14.460938 24.609375 C 13.90625 24.207031 13.394531 23.746094 12.929688 23.238281 C 13.160156 23.246094 13.390625 23.246094 13.617188 23.246094 Z M 14.460938 5.128906 L 14.460938 10.171875 C 13.148438 10.148438 11.886719 10.054688 10.765625 9.894531 C 11.570312 7.972656 12.839844 6.3125 14.460938 5.128906 Z M 15.535156 10.171875 L 15.535156 5.128906 C 17.148438 6.308594 18.410156 7.957031 19.21875 9.867188 C 18.070312 10.046875 16.808594 10.152344 15.535156 10.171875 Z M 20.210938 14.867188 C 20.210938 15.507812 20.167969 16.136719 20.078125 16.753906 C 18.695312 16.953125 17.148438 17.066406 15.535156 17.085938 L 15.535156 11.246094 C 16.949219 11.222656 18.339844 11.101562 19.597656 10.894531 C 19.996094 12.144531 20.210938 13.488281 20.210938 14.867188 Z M 9.78125 14.867188 C 9.78125 13.5 9.992188 12.167969 10.386719 10.925781 C 11.617188 11.109375 13.007812 11.21875 14.460938 11.242188 L 14.460938 17.085938 C 12.847656 17.066406 11.300781 16.953125 9.917969 16.753906 C 9.828125 16.136719 9.78125 15.507812 9.78125 14.867188 Z M 10.128906 17.863281 C 11.46875 18.039062 12.9375 18.140625 14.460938 18.160156 L 14.460938 22.164062 C 13.636719 22.179688 12.820312 22.175781 12.03125 22.128906 C 11.144531 20.878906 10.496094 19.425781 10.128906 17.863281 Z M 6.390625 20.273438 C 5.660156 19.128906 5.152344 17.828125 4.929688 16.4375 C 5.507812 16.773438 6.296875 17.070312 7.273438 17.328125 C 7.804688 17.464844 8.382812 17.585938 8.992188 17.695312 C 9.261719 19.019531 9.722656 20.296875 10.359375 21.464844 C 10.457031 21.648438 10.5625 21.828125 10.667969 22.003906 C 8.953125 21.777344 7.445312 21.28125 6.390625 20.273438 Z M 23.546875 20.359375 C 23.238281 20.777344 22.414062 21.332031 20.25 21.710938 C 19.980469 21.761719 19.703125 21.804688 19.425781 21.839844 C 19.496094 21.714844 19.570312 21.589844 19.636719 21.464844 C 20.273438 20.292969 20.734375 19.019531 21.003906 17.691406 C 21.613281 17.585938 22.1875 17.464844 22.71875 17.328125 C 23.699219 17.070312 24.484375 16.773438 25.0625 16.4375 C 24.835938 17.863281 24.308594 19.195312 23.546875 20.359375 Z M 22.964844 6.878906 C 21.929688 5.847656 20.722656 5.039062 19.382812 4.472656 C 17.992188 3.886719 16.515625 3.589844 14.996094 3.589844 C 13.476562 3.589844 12 3.886719 10.613281 4.472656 C 9.269531 5.039062 8.066406 5.847656 7.03125 6.878906 C 5.996094 7.910156 5.183594 9.113281 4.617188 10.453125 C 4.027344 11.839844 3.730469 13.3125 3.730469 14.828125 C 3.730469 16.34375 4.027344 17.816406 4.617188 19.203125 C 4.855469 19.773438 5.144531 20.320312 5.472656 20.835938 C 5.488281 20.867188 5.507812 20.898438 5.527344 20.925781 C 5.960938 21.589844 6.460938 22.207031 7.03125 22.777344 C 8.066406 23.808594 9.269531 24.617188 10.613281 25.183594 C 11.917969 25.734375 13.296875 26.03125 14.722656 26.066406 C 14.796875 26.105469 14.882812 26.121094 14.960938 26.121094 C 14.976562 26.121094 14.988281 26.121094 15 26.121094 C 15.011719 26.121094 15.023438 26.121094 15.035156 26.121094 C 15.117188 26.121094 15.199219 26.105469 15.277344 26.066406 C 16.699219 26.03125 18.078125 25.734375 19.382812 25.183594 C 20.722656 24.617188 21.929688 23.808594 22.964844 22.777344 C 23.996094 21.746094 24.808594 20.542969 25.378906 19.203125 C 25.964844 17.816406 26.265625 16.34375 26.265625 14.828125 C 26.265625 13.3125 25.964844 11.839844 25.378906 10.453125 C 24.808594 9.113281 23.996094 7.910156 22.964844 6.878906 " fill-opacity="1" fill-rule="nonzero"/></g><path fill="#ffffff" d="M 21.75 21.972656 C 21.679688 22.605469 21.023438 23.023438 20.027344 23.65625 C 18.292969 24.757812 16.566406 24.871094 15.828125 24.917969 C 13.542969 25.050781 11.859375 24.347656 10.984375 23.972656 C 9.488281 23.324219 8.738281 23.003906 8.617188 22.394531 C 8.316406 20.917969 11.707031 18.230469 15.234375 18.191406 C 18.554688 18.152344 21.917969 20.441406 21.75 21.972656 Z M 21.75 21.972656 " fill-opacity="1" fill-rule="nonzero"/><g clip-path="url(#ee2004b75f)"><path fill="#ffffff" d="M 24.539062 14.984375 C 24.511719 18.914062 22.035156 22.546875 18.308594 23.878906 C 14.582031 25.214844 10.289062 24.046875 7.746094 20.964844 C 5.246094 17.929688 4.945312 13.496094 6.960938 10.132812 C 8.992188 6.734375 13.066406 4.910156 16.953125 5.710938 C 21.339844 6.609375 24.507812 10.519531 24.539062 14.984375 C 24.542969 15.660156 25.59375 15.664062 25.589844 14.984375 C 25.558594 10.613281 22.820312 6.660156 18.71875 5.121094 C 14.609375 3.585938 9.792969 4.882812 7.003906 8.261719 C 4.199219 11.660156 3.78125 16.574219 6.050781 20.367188 C 8.3125 24.144531 12.777344 26.121094 17.09375 25.300781 C 21.996094 24.371094 25.554688 19.9375 25.589844 14.984375 C 25.59375 14.308594 24.542969 14.308594 24.539062 14.984375 Z M 24.539062 14.984375 " fill-opacity="1" fill-rule="nonzero"/></g><path fill="#ffffff" d="M 19.355469 12.46875 C 19.355469 12.753906 19.324219 13.039062 19.269531 13.320312 C 19.214844 13.601562 19.132812 13.875 19.023438 14.136719 C 18.910156 14.402344 18.777344 14.652344 18.617188 14.890625 C 18.460938 15.128906 18.277344 15.351562 18.074219 15.554688 C 17.871094 15.757812 17.652344 15.9375 17.414062 16.097656 C 17.175781 16.257812 16.925781 16.390625 16.660156 16.5 C 16.394531 16.609375 16.121094 16.691406 15.839844 16.75 C 15.558594 16.804688 15.277344 16.832031 14.988281 16.832031 C 14.703125 16.832031 14.417969 16.804688 14.136719 16.75 C 13.855469 16.691406 13.582031 16.609375 13.320312 16.5 C 13.054688 16.390625 12.800781 16.257812 12.5625 16.097656 C 12.324219 15.9375 12.105469 15.757812 11.902344 15.554688 C 11.699219 15.351562 11.519531 15.128906 11.359375 14.890625 C 11.199219 14.652344 11.066406 14.402344 10.957031 14.136719 C 10.847656 13.875 10.765625 13.601562 10.707031 13.320312 C 10.652344 13.039062 10.625 12.753906 10.625 12.46875 C 10.625 12.179688 10.652344 11.898438 10.707031 11.617188 C 10.765625 11.335938 10.847656 11.0625 10.957031 10.796875 C 11.066406 10.53125 11.199219 10.28125 11.359375 10.042969 C 11.519531 9.804688 11.699219 9.582031 11.902344 9.382812 C 12.105469 9.179688 12.324219 8.996094 12.5625 8.839844 C 12.800781 8.679688 13.054688 8.542969 13.320312 8.433594 C 13.582031 8.324219 13.855469 8.242188 14.136719 8.1875 C 14.417969 8.128906 14.703125 8.101562 14.988281 8.101562 C 15.277344 8.101562 15.558594 8.128906 15.839844 8.1875 C 16.121094 8.242188 16.394531 8.324219 16.660156 8.433594 C 16.925781 8.542969 17.175781 8.679688 17.414062 8.839844 C 17.652344 8.996094 17.871094 9.179688 18.074219 9.382812 C 18.277344 9.582031 18.460938 9.804688 18.617188 10.042969 C 18.777344 10.28125 18.910156 10.53125 19.023438 10.796875 C 19.132812 11.0625 19.214844 11.335938 19.269531 11.617188 C 19.324219 11.898438 19.355469 12.179688 19.355469 12.46875 Z M 19.355469 12.46875 " fill-opacity="1" fill-rule="nonzero"/></svg>